<svg xmlns="http://www.w3.org/2000/svg" viewBox="0 0 535.7 60.8">
<path fill="#231F20" d="M121.2 3.5V5l-.4 1c0 .4-.3.6-.5.7l-.7.2h-17v52.3c0 .3 0 .5-.2.7 0 .2-.3.3-.7.4l-1.2.3h-3.8c-.5 0-1-.2-1.3-.3-.3 0-.5-.3-.6-.4l-.2-.7V6.8h-17c-.2 0-.5 0-.7-.2-.3 0-.5-.3-.6-.6L76 5V3.4 2l.4-1.2c0-.3.3-.5.5-.6l.6-.2h42c.4 0 .6 0 .8.2.2 0 .4.3.5.6 0 .3 0 .6.2 1v1.7zM172.8 59.3c0 .3 0 .5-.2.7 0 .2-.3.3-.6.5l-1.3.3h-4.2c-.5 0-1-.2-1.2-.3-.3 0-.6-.3-.7-.6l-.5-1-5.5-14.3-2-4.5c-.7-1.4-1.5-2.5-2.5-3.5s-2-1.7-3.4-2.3c-1.3-.5-3-.8-4.7-.8h-5.5v25.8c0 .3 0 .5-.2.7 0 .3-.4.4-.7.5l-1.2.3h-3.8c-.5 0-1-.2-1.2-.3-.3 0-.5-.3-.7-.4l-.2-.6v-56c0-1.2.3-2 1-2.6.6-.5 1.3-.7 2-.7h13c1.4 0 2.7 0 3.7.2 1 0 2 .2 2.7.3 2.2.4 4.3 1 6 2 2 .8 3.4 2 4.6 3.2 1.2 1.3 2 3 2.7 4.6.6 1.7 1 3.6 1 5.7 0 2-.4 3.8-1 5.5-.4 1.6-1.2 3-2.3 4.2-1 1.2-2.3 2.3-3.7 3.2-1.4.8-3 1.6-4.8 2.2 1 .4 2 1 2.7 1.7.8.6 1.6 1.4 2.3 2.3.7 1 1.4 2 2 3.2l2 4 5.3 13.4.8 2.3c.2.4.2.7.2 1zm-12-42.5c0-2.4-.6-4.4-1.7-6-1-1.6-2.7-2.8-5.2-3.5l-2.6-.5h-10.7V27h8c2 0 3.8-.3 5.4-.8 1.4-.5 2.7-1.2 3.8-2.2 1-1 1.8-2 2.3-3.2.5-1.2.7-2.6.7-4zM226.7 37.8c0 3.6-.5 6.8-1.6 9.7-1 2.8-2.5 5.2-4.4 7.2-2 2-4.4 3.4-7.2 4.5-2.8 1-6 1.5-9.6 1.5-3.3 0-6.3-.5-9-1.4-2.7-1-5-2.4-7-4.2-1.8-1.8-3.3-4-4.4-7-1-2.7-1.6-6-1.6-9.6v-37c0-.2 0-.5.2-.6 0-.2.3-.3.6-.4l1.2-.3h4l1 .4c.4 0 .6.3.7.4l.2.6v36c0 2.8.3 5.2 1 7.2s1.7 3.8 3 5c1.2 1.5 2.7 2.5 4.5 3.2 1.8.7 3.8 1 6 1 2.4 0 4.4-.3 6.2-1 1.8-.7 3.3-1.7 4.6-3 1.2-1.4 2.2-3 2.8-5 .7-2 1-4.3 1-7V1.5c0-.2 0-.5.2-.6 0-.3.3-.4.6-.5l1.2-.3c.6-.2 1.2-.2 2-.2h2l1 .4c.4 0 .6.3.7.4l.2.6v36.4zM272 43.3c0 2.8-.4 5.2-1.4 7.4-1 2.2-2.4 4-4.2 5.5-1.8 1.5-4 2.6-6.4 3.4-2.5.8-5 1-8 1-2 0-3.7 0-5.4-.4-1.7-.3-3.2-.7-4.5-1.2l-3.2-1.5c-1-.5-1.5-1-2-1.3l-.7-1.4-.2-2.3v-1.7c.2-.4.2-.8.4-1 0-.4.3-.6.5-.7h.6c.4 0 1 .2 1.8.7 1 .5 2 1 3 1.7 1.3.6 2.8 1.2 4.5 1.7 1.7.6 3.7 1 6 1 1.7 0 3.3-.3 4.7-.8 1.4-.5 2.6-1 3.7-2 1-.7 1.7-1.8 2.2-3 .5-1.2.8-2.6.8-4 0-1.8-.4-3.2-1-4.4-1-1.2-2-2.2-3-3-1.4-1-2.8-1.8-4.4-2.6l-5-2.3-4.8-2.7c-1.6-1-3-2-4.2-3.3-1.3-1.3-2.3-2.8-3-4.5-.8-1.7-1.2-3.8-1.2-6.2 0-2.5.4-4.7 1.4-6.6 1-2 2-3.6 3.7-5 1.6-1.2 3.5-2.2 5.7-3 2.2-.6 4.6-1 7-1 1.4 0 2.7.2 4 .4l3.7 1 3 1.3c1 .5 1.5 1 1.8 1l.6.8.2.7v1L269 7v1.5c0 .4-.2.8-.3 1 0 .4-.2.6-.4.7l-.5.2c-.3 0-1-.2-1.6-.6-.8-.4-1.7-1-2.7-1.4L259.6 7c-1.4-.5-3-.8-4.8-.8-1.6 0-3 .2-4.3.7-1.2.3-2.2 1-3 1.7-.8.7-1.4 1.6-1.8 2.6-.4 1-.6 2-.6 3.2 0 1.6.5 3 1.2 4.2.8 1.2 1.8 2.2 3 3 1.3 1 2.7 2 4.3 2.6l5 2.3 4.8 2.5c1.6 1 3 2 4.3 3.4 1.3 1.3 2.3 2.8 3 4.5 1 2 1.5 4 1.5 6.3zM322 3.5V5l-.4 1c0 .4-.3.6-.5.7l-.6.2h-17v52.3c0 .2 0 .5-.2.7 0 .2-.3.3-.7.4l-1.2.3h-3.8c-.5 0-1-.2-1.3-.3-.3 0-.5-.3-.7-.4l-.2-.7V6.8h-17c-.2 0-.5 0-.7-.2-.2 0-.4-.3-.5-.6 0-.3 0-.6-.2-1V3.3 1.8c0-.5.2-.8.3-1 .2-.4.4-.6.6-.7H321l.5.7.3 1c.2.6.2 1.2.2 1.8z"/>
<path fill="#929497" d="M368.7 17.7c0 3-.5 5.8-1.5 8.2-1 2.3-2.4 4.4-4.3 6-2 1.8-4.2 3-7 4-2.6 1-5.8 1.5-9.6 1.5h-7V60l-.8.4-1.2.3h-3.8c-.5 0-1-.2-1.2-.3-.3 0-.5-.3-.7-.4l-.2-.7V3.5c0-1.2.3-2 1-2.7.7-.5 1.4-.8 2.2-.8h13c1.2 0 2.5 0 3.7.2 1.2 0 2.6.3 4.2.7 1.6.3 3.3 1 5 2 1.7 1 3 2 4.3 3.5 1 1.4 2 3 2.6 5 .8 2 1 4 1 6.2zm-8.4.7c0-2.5-.5-4.5-1.4-6.2-1-1.7-2.2-3-3.5-3.7-1.4-.8-2.8-1.3-4.2-1.5l-4.2-.3h-7.3V31h7.2c2.3 0 4.3-.3 6-1 1.5-.5 3-1.4 4-2.5 1-1 1.8-2.4 2.4-4 .6-1.6 1-3.3 1-5zM387.7 59.2c0 .2 0 .5-.2.6 0 .2-.3.3-.7.4l-1.2.3h-3.8c-.5 0-1-.2-1.3-.3-.3 0-.5-.3-.7-.4l-.2-.6V1.5c0-.3 0-.5.2-.7 0-.2.4-.3.7-.4l1.2-.3h4l1 .4c.4 0 .6.3.8.4l.2.7v57.7zM434 57.3V59l-.4 1c0 .3-.3.5-.5.6l-.6.2h-26.7c-.7 0-1.4-.2-2-.7-.6-.4-1-1.2-1-2.4v-56c0-.2 0-.5.2-.7 0-.3.2-.4.5-.5l1.3-.3h3.8c.5 0 1 .2 1.2.3.3 0 .5.3.7.4l.2.6V54H433c.3.2.5.4.6.7l.3 1v1.6zM488.7 29.6c0 4.8-.6 9-1.7 13-1 3.7-2.8 7-5 9.7-2.2 2.7-5 4.7-8.4 6.2-3.4 1.4-7.3 2.2-11.8 2.2-4.4 0-8.3-.7-11.5-2-3.2-1.3-6-3.2-8-5.8-2-2.6-3.7-5.7-4.7-9.5-1-3.7-1.6-8-1.6-13 0-4.5.6-8.8 1.7-12.6 1-4 2.8-7 5-9.8 2.3-2.7 5-4.7 8.5-6C454.6.6 458.5 0 463 0c4.3 0 8 .7 11.3 2 3.2 1.3 6 3.2 8 5.7s3.7 5.6 4.8 9.3c1.2 3.6 1.7 8 1.7 12.6zm-8.3.6c0-3.3-.3-6.4-1-9.3-.5-3-1.5-5.4-3-7.6-1.3-2-3-3.8-5.4-5-2.3-1-5.2-1.7-8.5-1.7-3.4 0-6.2.6-8.5 2-2.3 1.2-4.2 3-5.6 5-1.4 2-2.5 4.6-3 7.4-.7 3-1 6-1 9 0 3.5.3 6.6 1 9.6.5 3 1.4 5.4 2.8 7.5 1.4 2.2 3.2 4 5.5 5 2.3 1.2 5.2 1.8 8.6 1.8 3.4 0 6.3-.6 8.6-2 2.2-1.2 4-3 5.5-5 1.4-2.3 2.4-4.8 3-7.6.6-2.8 1-5.8 1-9zM535.7 3.5V5l-.4 1c0 .4-.3.6-.5.7l-.7.2h-17v53l-.7.4-1.2.3h-3.8l-1.2-.3c-.3 0-.5-.3-.7-.4l-.2-.7V6.8h-17s-.4 0-.6-.2c-.2 0-.4-.3-.5-.6l-.4-1V3.3 1.8c0-.5.2-.8.3-1 0-.4.2-.6.4-.7H535l.4.7.3 1v1.8z"/>
<path fill="#F9A21E" d="M0 1v25.7S19.4 36 29.3 52.5c0 0 4.4-36.6 28.8-51.5H0z"/>
<linearGradient id="a" gradientUnits="userSpaceOnUse" x1="29" y1="59.3" x2="29" y2="26.1">
<stop offset="0" stop-color="#E37A26"/>
<stop offset=".5" stop-color="#F9A21E"/>
</linearGradient>
<path fill="url(#a)" d="M0 48v11.3h26S16 48.7 0 48zM33 59h25v-33c-14 3.7-25 33-25 33z"/>
<linearGradient id="b" gradientUnits="userSpaceOnUse" x1="28.9" y1="23.7" x2="28.9" y2="1.4">
<stop offset="0" stop-color="#FFF"/>
<stop offset="1" stop-color="#F9A21E"/>
</linearGradient>
<path opacity=".5" fill="url(#b)" d="M.3 1.4h57S48 4.7 38 23.4c0 0-22.2 2-37.7-4.6V1.4z"/>
<linearGradient id="c" gradientUnits="userSpaceOnUse" x1="58" y1="1" x2="58" y2="1.1">
<stop offset="0" stop-color="#484848"/>
<stop offset="1"/>
</linearGradient>
<path fill="url(#c)" d="M58 1"/>
<linearGradient id="d" gradientUnits="userSpaceOnUse" x1="29" y1="1.3" x2="29" y2="59">
<stop offset="0" stop-color="#484848"/>
<stop offset="1"/>
</linearGradient>
<path fill="url(#d)" d="M29.3 52.5C19.3 36 0 26.7 0 26.7V48c16 .7 26 11.3 26 11.3h7S44 30 58 26V1C33.6 16 29.3 52.6 29.3 52.6z"/>
</svg>
