<svg id="logo-tertiary-tealOnTransparent" xmlns="http://www.w3.org/2000/svg" width="100" height="50" viewBox="0 0 100 50">
<style>.teal{fill:#00C8B4;}</style>
<g id="zopa"><path id="Z" class="teal" d="M8.9 21.5h5.9c0 1.6-6.2 5.5-6.2 9.8v.7h12.5v-3.5h-5.9c0-1.6 6.2-5.5 6.2-9.8V18H8.9v3.5z"/><path id="O" class="teal" d="M38 17.9c-4.5 0-7.7 3-7.7 7.1s3.2 7.2 7.7 7.2 7.7-3.1 7.7-7.2c-.1-4.2-3.3-7.1-7.7-7.1zm2.9 7.1c.2 1.7-1.1 3.2-2.8 3.3H38c-1.7-.1-3.1-1.6-3-3.3-.1-1.7 1.2-3.2 2.9-3.3h.1c1.7.1 3 1.4 2.9 3.1v.2z"/><path id="P" class="teal" d="M61.6 18h-6.3v14h4.4v-3.6h1.9c3.6 0 5.7-2 5.7-5.3S65.2 18 61.6 18zm0 6.8h-2v-3.3h1.7c.8-.1 1.5.5 1.6 1.3v.3c.1.9-.5 1.6-1.3 1.7z"/><path id="A" class="teal" d="M85.7 18h-4.8L75 32h4.8l.7-2h5.2l.7 2h4.9l-5.6-14zm-4 8.7l1.5-4.1 1.4 4.1h-2.9z"/></g>
</svg>
